<?xml version="1.0" encoding="iso-8859-1"?>
<!-- Generator: Adobe Illustrator 16.0.0, SVG Export Plug-In . SVG Version: 6.00 Build 0)  -->
<!DOCTYPE svg PUBLIC "-//W3C//DTD SVG 1.1//EN" "http://www.w3.org/Graphics/SVG/1.1/DTD/svg11.dtd">
<svg version="1.1" id="Capa_1" xmlns="http://www.w3.org/2000/svg" xmlns:xlink="http://www.w3.org/1999/xlink" x="0px" y="0px"
	 width="50.768px" height="50.768px" viewBox="0 0 50.768 50.768" style="enable-background:new 0 0 50.768 50.768;"
	 xml:space="preserve">
<g>
	<g>
		<path d="M17.837,0c-3.476,0-6.304,2.828-6.304,6.305c0,3.476,2.828,6.304,6.304,6.304c3.477,0,6.305-2.828,6.305-6.304
			C24.141,2.828,21.312,0,17.837,0z M17.837,10.608c-2.373,0-4.304-1.931-4.304-4.304c0-2.374,1.931-4.305,4.304-4.305
			c2.374,0,4.305,1.931,4.305,4.305C22.141,8.678,20.211,10.608,17.837,10.608z"/>
		<path d="M4.316,22.556l5.663,7.221l0.186,18.023c0.006,0.549,0.452,0.989,1,0.989c0.003,0,0.007,0,0.011,0
			c0.552-0.006,0.995-0.458,0.989-1.011l-0.189-18.363c-0.002-0.22-0.077-0.434-0.213-0.605l-5.306-6.767l6.758-6.294
			c0.404-0.376,0.427-1.009,0.05-1.413c-0.376-0.404-1.01-0.426-1.413-0.05l-7.43,6.92C4.042,21.561,3.996,22.146,4.316,22.556z"/>
		<path d="M29.72,21.207l-7.429-6.92c-0.403-0.376-1.037-0.354-1.413,0.05c-0.377,0.404-0.354,1.037,0.05,1.413l5.858,5.457
			c-0.038,0.014-0.077,0.02-0.114,0.035L24.6,22.137c-1.143,0.494-1.67,1.824-1.176,2.966l0.229,0.529
			c-0.885,0.699-1.673,1.514-2.354,2.432l-0.541-0.215c-1.139-0.451-2.482,0.137-2.929,1.266l-0.833,2.097
			c-0.222,0.56-0.213,1.173,0.026,1.728c0.238,0.554,0.679,0.979,1.237,1.201l0.536,0.213c-0.132,1.127-0.114,2.262,0.051,3.387
			l-0.528,0.228c-1.143,0.493-1.671,1.823-1.178,2.966l0.895,2.076c0.357,0.825,1.169,1.359,2.068,1.359
			c0.312,0,0.614-0.062,0.895-0.188l0.531-0.228c0.706,0.896,1.519,1.687,2.429,2.36l-0.209,0.526
			c-0.225,0.563-0.217,1.179,0.022,1.732c0.24,0.556,0.682,0.981,1.241,1.202l2.098,0.832c0.266,0.105,0.545,0.16,0.83,0.16
			c0.931,0,1.754-0.561,2.098-1.426l0.214-0.537c1.127,0.133,2.269,0.115,3.384-0.046l0.229,0.532
			c0.479,1.107,1.854,1.652,2.966,1.172l2.068-0.895c0.553-0.235,0.979-0.674,1.202-1.231c0.225-0.562,0.217-1.177-0.023-1.733
			l-0.229-0.527c0.89-0.704,1.678-1.52,2.354-2.434l0.538,0.213c0.268,0.106,0.549,0.162,0.835,0.162
			c0.932,0,1.754-0.561,2.093-1.422l0.837-2.1c0.457-1.16-0.111-2.475-1.267-2.932l-0.532-0.211
			c0.131-1.123,0.113-2.258-0.053-3.386l0.523-0.228c0.555-0.236,0.982-0.676,1.206-1.234c0.225-0.562,0.216-1.177-0.023-1.732
			l-0.896-2.068c-0.479-1.112-1.855-1.663-2.965-1.18l-0.53,0.228c-0.703-0.891-1.516-1.68-2.428-2.356l0.216-0.54
			c0.454-1.16-0.116-2.475-1.269-2.928l-2.1-0.832c-1.135-0.45-2.478,0.135-2.929,1.266l-0.214,0.541
			c-1.128-0.131-2.266-0.117-3.383,0.047l-0.132-0.307c0.011-0.01,0.024-0.014,0.034-0.024
			C30.148,22.216,30.125,21.583,29.72,21.207z M26.325,35.854c0-2.992,2.435-5.428,5.427-5.428s5.426,2.436,5.426,5.428
			s-2.434,5.429-5.426,5.429S26.325,38.848,26.325,35.854z"/>
		<path d="M17.837,25.111c0.553,0,1-0.447,1-1v-9.093c0-0.553-0.447-1-1-1c-0.553,0-1,0.447-1,1v9.093
			C16.837,24.664,17.284,25.111,17.837,25.111z"/>
	</g>
</g>
<g>
</g>
<g>
</g>
<g>
</g>
<g>
</g>
<g>
</g>
<g>
</g>
<g>
</g>
<g>
</g>
<g>
</g>
<g>
</g>
<g>
</g>
<g>
</g>
<g>
</g>
<g>
</g>
<g>
</g>
</svg>
